name processed_emg_signals
nRows=65
nColumns=7
 
endheader
time	RGLTMED	RRF	RADDLONG	RST	RTA	RGM
0.0	0.0193921749395822	0.008124466655689	0.0570962477584768	0.018479633606006	0.1115076695603085	0.0043564128387509
0.001	0.0150582945477592	0.0105211536344962	0.0603142910773431	0.0193038260134987	0.1216057337271915	0.002034413388709
0.002	0.0107217038206004	0.0129235728915765	0.0635381770409085	0.0201163787724452	0.1317010159226394	0.0002811629705536
0.003	0.0063847791409135	0.0153303665602237	0.0667656436554652	0.020916537120984	0.1417863404192316	0.0025889043713691
0.004	0.0020498997156541	0.0177401725194368	0.0699944171398153	0.0217035613055799	0.1518545054980735	0.0048874083669505
0.005	0.002280555175944	0.0201516262776178	0.0732222154563467	0.0224767282579098	0.1618982934235761	0.0071752839593772
0.006	0.0066042089178195	0.0225633628508362	0.0764467518662778	0.0232353332713441	0.1719104804409406	0.0094511536031773
0.007	0.0109186902708151	0.0249740186303837	0.0796657384982287	0.023978691672963	0.1818838467683023	0.0117136551790649
0.008	0.0152216360597246	0.0273822332342881	0.082876889919474	0.0247061404871609	0.1918111865566422	0.0139614439327374
0.009000000000000001	0.0195106938288056	0.0297866513382447	0.0860779266999455	0.0254170400871203	0.2016853177911922	0.0161931943740378
0.01	0.0237835244613187	0.0321859244814991	0.0892665789590977	0.0261107758304528	0.2114990921083357	0.018407602132279
0.011	0.0280378047586905	0.0345787128434583	0.0924405898863048	0.0267867596755307	0.2212454045021999	0.020603385763871
0.012	0.0322712299750445	0.0369636869875475	0.0955977192260861	0.0274444317751104	0.2309172028959216	0.0227792885089404
0.013000000000000001	0.0364815163031904	0.0393395295687058	0.0987357467200597	0.0280832620440448	0.2405074975537363	0.0249340799938346
0.014	0.0406664033083041	0.0417049370015303	0.1018524754984188	0.0287027516980556	0.2500093703117207	0.0270665578766921
0.015	0.0448236563061482	0.0440586210861226	0.1049457354140154	0.0293024347606442	0.2594159836071897	0.0291755494335873
0.016	0.048951068682889	0.0463993105893825	0.1080133863130073	0.0298818795352656	0.2687205892888427	0.03125991308291
0.017	0.0530464641541285	0.0487257527791562	0.1110533212357867	0.030440690040026	0.2779165371917424	0.0333185398458796
0.018000000000000002	0.0571076989609949	0.0510367149094123	0.1140634695425387	0.0309785074020859	0.2869972834625154	0.0353503547412844
0.019	0.0611326640015669	0.0533309856543634	0.1170417999579052	0.0314950112091206	0.2959563986215618	0.0373543181125931
0.02	0.0651192868961299	0.0556073764896528	0.1199863235293232	0.0319899208151727	0.3047875753505923	0.0393294268858616
0.021	0.069065533985039	0.0578647230186991	0.1228950964945481	0.032462996598296	0.3134846359956464	0.0412747157567336
0.022	0.0729694122582725	0.0601018862423936	0.1257662230537823	0.0329140411673973	0.3220415397774828	0.043189258305251
0.023	0.0768289712156693	0.0623177537702614	0.1285978580429101	0.0333429005156902	0.3304523897027936	0.0450721680369839
0.024	0.0806423046571372	0.0645112409712625	0.1313882095043862	0.0337494651182153	0.3387114391709196	0.0469225993492983
0.025	0.0844075524020094	0.0666812920628285	0.1341355411526479	0.034133670970823	0.3468130982715356	0.0487397484215689
0.026000000000000002	0.0881229019367868	0.0688268811363941	0.1368381747309666	0.0344955005682235	0.3547519397689508	0.0505228540282178
0.027	0.0917865899907958	0.0709470131185304	0.1394944922567571	0.0348349838187146	0.3625227047683731	0.0522711982735437
0.028	0.0953969040391538	0.0730407246664148	0.1421029381524458	0.0351521988933782	0.370120308059278	0.0539841072473641
0.029	0.0989521837325441	0.0751070849969859	0.144662021259077	0.0354472730077421	0.3775398431312122	0.0556609516005701
0.03	0.1024508222535166	0.0771451966492255	0.1471703167298387	0.0357203831339095	0.3847765868580213	0.0573011470398161
0.031	0.1058912675986606	0.0791541961791854	0.149626467800998	0.0359717566414314	0.391826003847535	0.0589041547404244
0.032	0.1092720237864094	0.0811332547877784	0.1520291874373471	0.0362016718652169	0.3986837504545884	0.0604694816766706
0.033	0.1125916519896384	0.0830815788815661	0.1543772598500292	0.0364104585988591	0.405345678455832	0.0619966808684069
0.034	0.1158487715924015	0.0849984105673431	0.1566695418846061	0.0365984985119003	0.4118078383850991	0.0634853515431282
0.035	0.1190420611697494	0.0868830280816436	0.1589049642774077	0.0367662254897537	0.4180664825284338	0.0649351392126167
0.036000000000000004	0.1221702593896357	0.0887347461566697	0.1610825327783374	0.0369141258951828	0.4241180675785901	0.0663457356636183
0.037	0.1252321658359045	0.0905529163242115	0.1632013291381504	0.0370427387506003	0.429959256950618	0.0677168788625007
0.038	0.1282266417515833	0.0923369271592645	0.1652605119584578	0.0371526558404984	0.435586922762908	0.0690483527743024
0.039	0.1311526107017702	0.094086204465268	0.1672593174027757	0.0372445217334737	0.4409981474911474	0.0703399870971402
0.04	0.1340090591558691	0.0958002114027898	0.1691970597674793	0.0373190337233888	0.4461902253054265	0.0715916569136183
0.041	0.1367950369889682	0.0974784485639177	0.1710731319115468	0.0373769416892157	0.4511606631024152	0.0728032822614741
0.042	0.1395096579025663	0.0991204539942279	0.1728870055446774	0.0374190478731901	0.4559071812452156	0.0739748276260206
0.043000000000000003	0.1421520997652031	0.1007258031644522	0.174638231373831	0.0374462065768964	0.4604277140235551	0.0751063013574226
0.044	0.1447216048735858	0.1022941088938905	0.1763264391091434	0.0374593237748816	0.4647204098463439	0.0761977550158798
0.045	0.1472174801351065	0.1038250212276906	0.1779513373305643	0.0374593566453856	0.4687836311776078	0.0772492826478764
0.046	0.149639097172638	0.1053182272701539	0.1795127132178423	0.0374473130178048	0.4726159542259061	0.0782610199965601
0.047	0.1519858923524255	0.1067734509763739	0.1810104321463877	0.0374242507364793	0.4762161683964439	0.079233143649406
0.048	0.1542573667359401	0.1081904529042373	0.1824444371523632	0.037391276940531	0.4795832755145666	0.0801658701263054
0.049	0.1564530859565475	0.1095690299292799	0.1838147482698217	0.0373495472595086	0.4827164888286855	0.0810594549115438
0.05	0.1585726800218719	0.1109090149242499	0.1851214617432746	0.0373002649247268	0.4856152318001403	0.0819141914332759
0.051000000000000004	0.1606158430427428	0.1122102764056302	0.18636474911843	0.0372446797962389	0.4882791366872199	0.0827304099943319
0.052000000000000005	0.1625823328900283	0.113472718148859	0.1875448562144495	0.0371840873057034	0.4907080429307346	0.0835084766583952
0.053	0.1644719707808062	0.1146962787741855	0.1886621019808423	0.0371198273155302	0.4929019953488172	0.0842487920954374
0.054	0.1662846407954222	0.1158809313048803	0.1897168772427146	0.0370532828950917	0.4948612421489621	0.0849517903903401
0.055	0.1680202893275781	0.1170266826994674	0.1907096433383556	0.0369858790151325	0.4965862327651469	0.0856179378184108
0.056	0.1696789244694708	0.1181335733592802	0.1916409306540051	0.0369190811618206	0.4980776155273824	0.086247731591343
0.057	0.1712606153340041	0.1192016766128111	0.1925113370609137	0.0368543938720686	0.4993362351706347	0.086841698577135
0.058	0.1727654913162871	0.1202310981777019	0.1933215262600798	0.0367933591919995	0.5003631301897162	0.087400393997298
0.059000000000000004	0.1741937412963187	0.1212219756013616	0.1940722260400285	0.0367375550602669	0.501159530047013	0.087924400104726
0.06	0.1755456127852982	0.1221744776807315	0.1947642264528322	0.0366885936182485	0.5017268522399982	0.0884143248454722
0.061	0.1768214110180543	0.1230888038617387	0.1953983779130354	0.0366481194489241	0.5020666992356264	0.088870800507714
0.062	0.1780214979944401	0.1239651836192279	0.1959755892243865	0.0366178077465276	0.5021808552786617	0.0892944823609696
0.063	0.1791462914726238	0.1248038758177818	0.1964968255388859	0.0365993624190084	0.5020712830812321	0.0896860472885643
0.064	0.180196263917206	0.1256051680544242	0.196963106253459	0.036594514125355	0.5017401204011581	0.0900461924163971
